<!DOCTYPE svg PUBLIC "-//W3C//DTD SVG 1.1//EN" "http://www.w3.org/Graphics/SVG/1.1/DTD/svg11.dtd">
<!-- Uploaded to: SVG Repo, www.svgrepo.com, Transformed by: SVG Repo Mixer Tools -->
<svg fill="#4C37C0" height="79px" width="79px" version="1.1" id="Layer_1" xmlns="http://www.w3.org/2000/svg" xmlns:xlink="http://www.w3.org/1999/xlink" viewBox="0 0 512 512" xml:space="preserve" stroke="#4C37C0" transform="rotate(0)">
<g id="SVGRepo_bgCarrier" stroke-width="0"/>
<g id="SVGRepo_tracerCarrier" stroke-linecap="round" stroke-linejoin="round"/>
<g id="SVGRepo_iconCarrier"> <g> <g> <path d="M396.994,140.994C396.994,63.249,333.744,0,256,0S115.006,63.249,115.006,140.994 c0,68.868,49.634,126.352,115.006,138.584v32.88c-5.497,6.161-8.847,14.276-8.847,23.163v141.546 C221.166,496.373,236.793,512,256,512s34.834-15.627,34.834-34.834V335.62c0-8.886-3.35-17.002-8.847-23.163v-32.88 C347.359,267.346,396.994,209.861,396.994,140.994z M274.246,477.166c0,10.061-8.185,18.246-18.246,18.246 s-18.246-8.185-18.246-18.246V335.62c0-10.061,8.185-18.246,18.246-18.246s18.246,8.185,18.246,18.246V477.166z M246.6,302.086 v-20.419c3.109,0.206,6.24,0.321,9.4,0.321s6.291-0.115,9.4-0.321v20.419c-2.992-0.84-6.143-1.299-9.4-1.299 C252.743,300.786,249.593,301.245,246.6,302.086z M256,265.4c-68.597,0-124.406-55.809-124.406-124.406S187.403,16.587,256,16.587 s124.406,55.809,124.406,124.406S324.597,265.4,256,265.4z"/> </g> </g> <g> <g> <path d="M256,35.387c-58.232,0-105.607,47.375-105.607,105.607c0,58.232,47.375,105.607,105.607,105.607 s105.607-47.375,105.607-105.607C361.607,82.762,314.232,35.387,256,35.387z M256,230.013c-49.086,0-89.019-39.934-89.019-89.019 c0-49.086,39.934-89.019,89.019-89.019s89.019,39.934,89.019,89.019C345.019,190.079,305.086,230.013,256,230.013z"/> </g> </g> </g>
</svg>